<?xml version="1.0" encoding="utf-8"?>
<!-- Generator: Adobe Illustrator 24.1.3, SVG Export Plug-In . SVG Version: 6.00 Build 0)  -->
<svg version="1.1" id="Layer_1" xmlns="http://www.w3.org/2000/svg" xmlns:xlink="http://www.w3.org/1999/xlink" x="0px" y="0px"
	 viewBox="0 0 214.2 214.3" style="enable-background:new 0 0 214.2 214.3;" xml:space="preserve">
<g id="Layer_2_1_">
	<g id="Layer_1-2">
		<g id="Layer_2-2">
			<g id="Layer_1-2-2">
				<path d="M190.5,0H23.8C10.7,0,0,10.7,0,23.8l0,0v166.7c0,13.1,10.7,23.8,23.8,23.8h166.7c13.1,0,23.7-10.7,23.7-23.8V23.8
					C214.2,10.7,203.6,0,190.5,0z M43.6,83.9c-0.3-2.8-0.5-5.7-0.5-8.7c-0.3-9.5,0.4-18.9,2.1-28.2l0.8-4.2h122.5l0.8,4.2
					c0.3,1.6,0.5,3.2,0.7,4.7l0.2,1.4H54.5c-1,7-1.4,14.2-1.2,21.3h72.7l-0.1,1c-0.4,3.1-0.9,6-1.4,8.7l-0.2,0.7H43.7L43.6,83.9z
					 M171.2,75.2c-0.1,3-0.3,6-0.6,8.7c-0.4,3.8-0.9,7.5-1.5,11c-2.9,17.8-9.8,34.8-20.2,49.5c-10.4,14.4-24,26.1-39.7,34.4
					l-2.4,1.3l-2.4-1.3c-15.5-8.4-28.9-20.1-39.1-34.4C54.9,129.6,48,112.7,45.2,94.9c-0.1-0.5-0.2-1-0.2-1.4l-0.1-0.8l-0.2-1H55
					l0.1,0.7V93c2.6,16.3,8.9,31.9,18.3,45.4c8.8,12.3,20.1,22.5,33.2,30c13.3-7.5,24.8-17.7,33.7-30c9.6-13.5,15.9-29.1,18.5-45.4
					c0.5-2.6,0.9-5.4,1.2-8.3h-18.6c-0.8,4.1-1.6,7.5-2.5,10.7c-2.9,12-8,23.5-14.8,33.8c-4.1,5.9-8.8,11.3-14,16.1l-3.5,3.2
					l-3.5-3.2c-5.3-4.8-10-10.2-14-16.1c-7.1-10.3-11.9-22-14.2-34.3c-0.1-0.5-0.2-1-0.2-1.4c0-0.2,0-0.5-0.1-0.7l-0.1-0.9h10.4
					l0.1,0.7v0.8c2,10.8,6.3,21.1,12.5,30.2c1.2,1.7,2.5,3.5,4,5.3v-28.6H112v28c1.4-1.7,2.6-3.3,3.7-4.9
					c6.2-9.4,10.8-19.8,13.4-30.7c2.8-10.1,4.4-20.5,4.8-31v-0.9l10.3,0.3v0.9c-0.1,3.8-0.5,7.9-1,12.4h28.1L171.2,75.2z"/>
			</g>
		</g>
	</g>
</g>
</svg>
